HIERARCHY
ROOT Hips
{
	OFFSET 0.00 0.00 0.00
	CHANNELS 6 Xposition Yposition Zposition Xrotation Yrotation Zrotation
	JOINT Spine
	{
		OFFSET 0.00000 1.66264 2.49395
		CHANNELS 3 Xrotation Yrotation Zrotation
		JOINT Spine1
		{
			OFFSET 0.00000 0.57743 3.27475
			CHANNELS 3 Xrotation Yrotation Zrotation
			JOINT Spine2
			{
				OFFSET 0.00000 0.28982 3.31262
				CHANNELS 3 Xrotation Yrotation Zrotation
				JOINT Spine3
				{
					OFFSET 0.00000 0.00000 3.32527
					CHANNELS 3 Xrotation Yrotation Zrotation
					JOINT Neck
					{
						OFFSET 0.00000 -1.24697 8.72884
						CHANNELS 3 Xrotation Yrotation Zrotation
						JOINT Head
						{
							OFFSET 0.00000 -0.79396 4.50279
							CHANNELS 3 Xrotation Yrotation Zrotation
							End Site
							{
								OFFSET 0.00000 0.00001 5.38279
							}
						}
					}
					JOINT RightShoulder
					{
						OFFSET -1.14808 -1.91346 6.19963
						CHANNELS 3 Xrotation Yrotation Zrotation
						JOINT RightArm
						{
							OFFSET -5.70212 0.00000 0.00000
							CHANNELS 3 Xrotation Yrotation Zrotation
							JOINT RightForeArm
							{
								OFFSET -10.82477 0.00000 0.00000
								CHANNELS 3 Xrotation Yrotation Zrotation
								JOINT RightHand
								{
									OFFSET -10.02856 0.00000 0.00000
									CHANNELS 3 Xrotation Yrotation Zrotation
									JOINT RightHandEnd
									{
										OFFSET -2.68345 0.00000 0.00000
										CHANNELS 3 Xrotation Yrotation Zrotation
										End Site
										{
											OFFSET -2.68345 0.00000 0.00000
										}
									}
									JOINT RightHandThumb1
									{
										OFFSET -1.07338 -1.78897 -0.71559
										CHANNELS 3 Yrotation Xrotation Zrotation
										End Site
										{
											OFFSET -2.59202 -0.69453 0.00000
										}
									}
								}
							}
						}
					}
					JOINT LeftShoulder
					{
						OFFSET 1.14808 -1.91346 6.19963
						CHANNELS 3 Xrotation Yrotation Zrotation
						JOINT LeftArm
						{
							OFFSET 5.70212 0.00000 0.00000
							CHANNELS 3 Xrotation Yrotation Zrotation
							JOINT LeftForeArm
							{
								OFFSET 10.82477 0.00000 0.00000
								CHANNELS 3 Xrotation Yrotation Zrotation
								JOINT LeftHand
								{
									OFFSET 10.02856 0.00000 0.00000
									CHANNELS 3 Xrotation Yrotation Zrotation
									JOINT LeftHandEnd
									{
										OFFSET 2.68345 0.00000 0.00000
										CHANNELS 3 Xrotation Yrotation Zrotation
										End Site
										{
											OFFSET 2.68345 0.00000 0.00000
										}
									}
									JOINT LeftHandThumb1
									{
										OFFSET 1.07338 -1.78897 -0.71559
										CHANNELS 3 Yrotation Xrotation Zrotation
										End Site
										{
											OFFSET 2.59202 -0.69453 0.00000
										}
									}
								}
							}
						}
					}
				}
			}
		}
	}
	JOINT RightUpLeg
	{
		OFFSET -3.40597 0.00000 -0.99500
		CHANNELS 3 Xrotation Yrotation Zrotation
		JOINT RightLeg
		{
			OFFSET 0.00001 0.00000 -17.05191
			CHANNELS 3 Xrotation Yrotation Zrotation
			JOINT RightFoot
			{
				OFFSET 0.00001 0.00000 -15.93260
				CHANNELS 3 Xrotation Yrotation Zrotation
				JOINT RightToeBase
				{
					OFFSET 0.00000 -4.98016 -1.81263
					CHANNELS 3 Xrotation Yrotation Zrotation
					End Site
					{
						OFFSET 0.00000 -2.75539 -0.00000
					}
				}
			}
		}
	}
	JOINT LeftUpLeg
	{
		OFFSET 3.40597 0.00000 -0.99500
		CHANNELS 3 Xrotation Yrotation Zrotation
		JOINT LeftLeg
		{
			OFFSET 0.00001 0.00000 -17.05191
			CHANNELS 3 Xrotation Yrotation Zrotation
			JOINT LeftFoot
			{
				OFFSET 0.00001 0.00000 -15.93260
				CHANNELS 3 Xrotation Yrotation Zrotation
				JOINT LeftToeBase
				{
					OFFSET 0.00000 -4.98016 -1.81263
					CHANNELS 3 Xrotation Yrotation Zrotation
					End Site
					{
						OFFSET 0.00000 -2.75539 -0.00000
					}
				}
			}
		}
	}
}
MOTION
Frames: 16
Frame Time: 0.008342
 -0.4084 3.0831 36.2972 27.8323 -2.5983 177.1463 1.9600 -1.0459 -0.7996 0.2310 -0.7585 -0.0516 1.8553 -2.3037 1.4631 0.8952 -1.2808 1.1378 -0.7887 -0.0116 4.6206 -0.5972 6.3285 4.2025 36.1808 20.3748 -17.2247 67.9374 -47.7384 60.5652 -0.0001 0.0001 108.7433 -23.3910 16.2861 2.2963 0.0000 -0.0000 -0.0000 -0.0000 -0.0000 0.0000 38.7646 -17.0658 12.5397 50.8960 47.8402 -52.7696 -0.0001 -0.0001 -102.9472 -21.2515 -15.5865 -11.0272 -0.0000 -0.0000 0.0000 -0.0000 0.0000 -0.0000 -0.3413 0.8532 -9.5428 49.9439 0.0000 0.0000 -2.0563 -5.1243 -39.7898 16.0470 0.0000 0.0000 16.0594 -6.9880 13.8732 28.3661 0.0000 0.0000 -1.2775 14.6596 20.7948 -13.6344 0.0000 -0.0000
 -0.3900 3.0731 36.3818 28.1384 -2.8271 177.0111 2.0295 -1.1704 -0.8311 0.2807 -0.7808 -0.0566 1.8830 -2.3394 1.4866 0.8970 -1.2808 1.1442 -1.0828 -0.0928 4.6558 -0.4545 6.3535 4.2343 35.9972 20.2556 -17.1307 67.8764 -47.5698 60.5460 -0.0001 0.0001 108.7834 -23.1959 16.2232 2.2721 0.0000 -0.0000 -0.0000 0.0000 -0.0000 -0.0000 38.6901 -16.8829 12.4041 50.5487 48.1905 -52.4720 -0.0001 -0.0001 -103.1220 -21.5364 -15.6136 -11.2567 -0.0000 -0.0000 -0.0000 0.0000 0.0000 0.0000 -1.6245 0.4840 -9.3320 52.1592 0.0000 0.0000 -2.1000 -4.6782 -40.5346 17.6041 0.0000 0.0000 15.6590 -7.3230 13.9086 29.5017 0.0000 0.0000 0.0481 15.0807 20.9995 -14.7012 0.0000 -0.0000
 -0.3720 3.0620 36.4680 28.4682 -3.0385 176.8771 2.1089 -1.2814 -0.8610 0.3403 -0.8106 -0.0613 1.9132 -2.3600 1.5079 0.9023 -1.2828 1.1443 -1.3707 -0.1635 4.6948 -0.3123 6.3853 4.2669 35.8169 20.1439 -17.0347 67.8076 -47.4098 60.5017 -0.0001 0.0001 108.8324 -22.9961 16.1349 2.2400 0.0000 -0.0000 0.0000 -0.0000 0.0000 0.0000 38.6171 -16.6927 12.2698 50.1770 48.5354 -52.1365 -0.0001 -0.0001 -103.2597 -21.8159 -15.6611 -11.4857 -0.0000 -0.0000 -0.0000 0.0000 0.0000 0.0000 -2.9465 0.1370 -9.1672 54.4584 0.0000 0.0000 -2.2744 -4.2895 -41.1085 18.6868 0.0000 0.0000 15.2134 -7.6469 13.9329 30.7082 0.0000 0.0000 1.4921 15.5104 21.2584 -15.6974 0.0000 -0.0000
 -0.3544 3.0494 36.5547 28.8134 -3.2406 176.7489 2.1981 -1.3970 -0.8835 0.4029 -0.8216 -0.0631 1.9441 -2.3910 1.5157 0.9121 -1.2743 1.1378 -1.6504 -0.2342 4.7345 -0.1754 6.4302 4.3018 35.6493 20.0253 -16.9400 67.7089 -47.2570 60.4203 -0.0001 0.0001 108.8914 -22.8217 16.0440 2.2063 -0.0000 -0.0000 0.0000 0.0000 0.0000 0.0000 38.5330 -16.5037 12.1311 49.8024 48.8817 -51.7676 -0.0001 -0.0001 -103.3582 -22.0914 -15.7213 -11.7142 0.0000 -0.0000 0.0000 0.0000 0.0000 0.0000 -4.3117 -0.1972 -9.0443 56.8253 0.0000 0.0000 -2.5602 -3.9829 -41.5203 19.3222 0.0000 0.0000 14.7150 -7.9702 13.9462 31.9780 0.0000 0.0000 3.0505 15.9442 21.5728 -16.5574 0.0000 -0.0000
 -0.3360 3.0355 36.6416 29.1718 -3.4479 176.6352 2.2905 -1.5157 -0.9054 0.4689 -0.8409 -0.0663 1.9851 -2.4151 1.5122 0.9206 -1.2655 1.1257 -1.9212 -0.2985 4.7767 -0.0438 6.4821 4.3372 35.4903 19.9078 -16.8424 67.5949 -47.1255 60.3069 -0.0001 0.0001 108.9581 -22.6776 15.9539 2.1748 0.0000 0.0000 -0.0000 -0.0000 -0.0000 -0.0000 38.4441 -16.3079 11.9932 49.4193 49.2157 -51.3720 -0.0001 -0.0001 -103.4132 -22.3624 -15.8000 -11.9363 0.0000 0.0000 -0.0000 -0.0000 0.0000 -0.0000 -5.7120 -0.5373 -8.9630 59.2317 0.0000 0.0000 -2.9285 -3.7696 -41.7903 19.5592 0.0000 0.0000 14.1676 -8.3126 13.9482 33.2960 0.0000 0.0000 4.7153 16.3786 21.9385 -17.2063 0.0000 -0.0000
 -0.3177 3.0206 36.7281 29.5368 -3.6567 176.5379 2.3780 -1.6322 -0.9234 0.5411 -0.8713 -0.0759 2.0339 -2.4340 1.4939 0.9284 -1.2554 1.1139 -2.1815 -0.3562 4.8187 0.0811 6.5403 4.3727 35.3448 19.7912 -16.7463 67.4650 -47.0172 60.1645 -0.0001 0.0001 109.0273 -22.5836 15.8784 2.1549 -0.0000 0.0000 -0.0000 0.0000 -0.0000 -0.0000 38.3470 -16.1103 11.8525 49.0434 49.5399 -50.9649 -0.0001 -0.0001 -103.4221 -22.6227 -15.8937 -12.1485 -0.0000 -0.0000 -0.0000 -0.0000 -0.0000 0.0000 -7.1492 -0.8765 -8.9217 61.6590 0.0000 0.0000 -3.3502 -3.6485 -41.9366 19.4629 0.0000 0.0000 13.5732 -8.6645 13.9244 34.6395 0.0000 0.0000 6.4694 16.8138 22.3677 -17.5643 0.0000 -0.0000
 -0.3001 3.0053 36.8139 29.9225 -3.8604 176.4587 2.4822 -1.7541 -0.9415 0.6172 -0.8925 -0.0820 2.0790 -2.4538 1.4619 0.9366 -1.2417 1.0933 -2.4276 -0.4131 4.8604 0.1951 6.6043 4.4101 35.2168 19.6736 -16.6481 67.3193 -46.9362 59.9956 -0.0001 0.0001 109.0955 -22.5390 15.8246 2.1464 -0.0000 0.0000 -0.0000 0.0000 0.0000 0.0000 38.2468 -15.9069 11.7148 48.6749 49.8449 -50.5503 -0.0001 -0.0001 -103.3893 -22.8753 -16.0040 -12.3476 -0.0000 0.0000 -0.0000 -0.0000 -0.0000 0.0000 -8.6020 -1.2043 -8.9163 64.0862 0.0000 0.0000 -3.7962 -3.6101 -41.9821 19.1131 0.0000 0.0000 12.9589 -9.0132 13.8687 35.9807 0.0000 0.0000 8.2910 17.2496 22.8618 -17.5569 0.0000 -0.0000
 -0.2829 2.9893 36.8983 30.3109 -4.0633 176.3960 2.5839 -1.8734 -0.9580 0.6907 -0.9200 -0.0908 2.1346 -2.4731 1.4186 0.9423 -1.2261 1.0694 -2.6648 -0.4676 4.9016 0.3049 6.6701 4.4468 35.1028 19.5517 -16.5509 67.1539 -46.8790 59.7965 -0.0001 0.0001 109.1580 -22.5503 15.7949 2.1516 0.0000 -0.0000 -0.0000 -0.0000 0.0000 -0.0000 38.1353 -15.6998 11.5754 48.3285 50.1333 -50.1421 -0.0001 -0.0001 -103.3151 -23.1157 -16.1197 -12.5324 0.0000 -0.0000 0.0000 0.0000 0.0000 -0.0000 -10.0845 -1.5273 -8.9414 66.4919 0.0000 0.0000 -4.2359 -3.6386 -41.9571 18.5931 0.0000 0.0000 12.3124 -9.3613 13.7770 37.3101 0.0000 0.0000 10.1422 17.6830 23.4188 -17.1236 0.0000 -0.0000
 -0.2667 2.9730 36.9812 30.7047 -4.2590 176.3484 2.6862 -1.9940 -0.9755 0.7683 -0.9426 -0.0986 2.1885 -2.4901 1.3648 0.9479 -1.2085 1.0405 -2.8923 -0.5253 4.9415 0.4111 6.7374 4.4851 35.0061 19.4255 -16.4528 66.9733 -46.8460 59.5787 -0.0001 0.0001 109.2059 -22.6094 15.7909 2.1720 0.0000 -0.0000 0.0000 -0.0000 0.0000 0.0000 38.0141 -15.4866 11.4386 48.0079 50.3998 -49.7466 -0.0001 -0.0001 -103.2044 -23.3416 -16.2387 -12.7014 0.0000 0.0000 0.0000 0.0000 -0.0000 0.0000 -11.5875 -1.8375 -8.9904 68.8562 0.0000 0.0000 -4.6451 -3.7098 -41.8873 17.9856 0.0000 0.0000 11.6464 -9.6952 13.6417 38.6128 0.0000 0.0000 11.9807 18.1160 24.0379 -16.2342 0.0000 -0.0000
 -0.2518 2.9568 37.0625 31.0989 -4.4456 176.3130 2.7842 -2.1095 -0.9919 0.8494 -0.9685 -0.1072 2.2421 -2.5009 1.3044 0.9524 -1.1935 1.0084 -3.1120 -0.5817 4.9794 0.5173 6.8019 4.5231 34.9221 19.2896 -16.3547 66.7741 -46.8313 59.3341 -0.0001 0.0001 109.2389 -22.6987 15.8101 2.1976 -0.0000 -0.0000 -0.0000 -0.0000 -0.0000 0.0000 37.8876 -15.2623 11.3002 47.7111 50.6423 -49.3695 -0.0001 -0.0001 -103.0611 -23.5471 -16.3583 -12.8556 0.0000 0.0000 -0.0000 0.0000 -0.0000 0.0000 -13.1097 -2.1309 -9.0597 71.1607 0.0000 0.0000 -5.0061 -3.8008 -41.7924 17.3637 0.0000 0.0000 10.9628 -10.0087 13.4619 39.8844 0.0000 0.0000 13.7564 18.5451 24.7118 -14.9000 0.0000 -0.0000
 -0.2388 2.9407 37.1423 31.4903 -4.6154 176.2868 2.8766 -2.2155 -1.0078 0.9272 -0.9909 -0.1154 2.2990 -2.5140 1.2373 0.9584 -1.1739 0.9759 -3.3294 -0.6418 5.0145 0.6304 6.8636 4.5617 34.8467 19.1488 -16.2565 66.5724 -46.8363 59.0830 -0.0001 0.0001 109.2470 -22.8104 15.8448 2.2324 0.0000 0.0000 0.0000 0.0000 -0.0000 0.0000 37.7525 -15.0260 11.1606 47.4405 50.8570 -49.0128 -0.0001 -0.0001 -102.8915 -23.7329 -16.4732 -12.9964 0.0000 0.0000 -0.0000 0.0000 -0.0000 0.0000 -14.6488 -2.3996 -9.1416 73.3901 0.0000 0.0000 -5.3081 -3.8875 -41.6895 16.7867 0.0000 0.0000 10.2622 -10.2883 13.2327 41.1272 0.0000 0.0000 15.4162 18.9717 25.4355 -13.1816 0.0000 -0.0000
 -0.2278 2.9248 37.2209 31.8769 -4.7662 176.2684 2.9619 -2.3073 -1.0251 1.0020 -1.0131 -0.1231 2.3606 -2.5242 1.1678 0.9646 -1.1575 0.9419 -3.5486 -0.7035 5.0486 0.7568 6.9214 4.5999 34.7779 18.9914 -16.1571 66.3506 -46.8490 58.8079 -0.0001 0.0001 109.2345 -22.9213 15.8910 2.2627 -0.0000 -0.0000 0.0000 0.0000 -0.0000 -0.0000 37.6127 -14.7697 11.0189 47.1916 51.0415 -48.6772 -0.0001 -0.0001 -102.7008 -23.8936 -16.5818 -13.1253 0.0000 0.0000 -0.0000 0.0000 0.0000 -0.0000 -16.1995 -2.6409 -9.2316 75.5301 0.0000 0.0000 -5.5473 -3.9546 -41.5886 16.2912 0.0000 0.0000 9.5440 -10.5294 12.9554 42.3519 0.0000 0.0000 16.9076 19.3917 26.1992 -11.1820 0.0000 -0.0000
 -0.2200 2.9087 37.2982 32.2421 -4.8839 176.2526 3.0165 -2.3802 -1.0374 1.0761 -1.0311 -0.1337 2.4351 -2.5277 1.0955 0.9687 -1.1386 0.9079 -3.7727 -0.7755 5.0779 0.9006 6.9788 4.6411 34.7141 18.8231 -16.0544 66.1263 -46.8719 58.5343 -0.0001 0.0001 109.1922 -23.0151 15.9421 2.2896 -0.0000 0.0000 -0.0000 0.0000 0.0000 -0.0000 37.4665 -14.5027 10.8735 46.9715 51.2029 -48.3678 -0.0001 -0.0001 -102.4919 -24.0230 -16.6782 -13.2449 0.0000 0.0000 0.0000 -0.0000 0.0000 -0.0000 -17.7768 -2.8387 -9.3207 77.5767 0.0000 0.0000 -5.7273 -3.9901 -41.4899 15.8942 0.0000 0.0000 8.7860 -10.7134 12.6280 43.5786 0.0000 0.0000 18.1796 19.8043 27.0009 -9.0353 0.0000 -0.0000
 -0.2153 2.8929 37.3749 32.6064 -4.9684 176.2417 3.0751 -2.4253 -1.0511 1.1426 -1.0448 -0.1408 2.5065 -2.5339 1.0217 0.9797 -1.1205 0.8711 -4.0087 -0.8523 5.1083 1.0689 7.0341 4.6821 34.6450 18.6393 -15.9452 65.8958 -46.8966 58.2472 -0.0001 0.0001 109.1298 -23.0694 15.9899 2.2988 0.0000 -0.0000 0.0000 0.0000 0.0000 0.0000 37.3162 -14.2078 10.7282 46.7667 51.3273 -48.0733 -0.0001 -0.0001 -102.2728 -24.1275 -16.7591 -13.3575 0.0000 -0.0000 0.0000 -0.0000 0.0000 -0.0000 -19.3487 -2.9931 -9.4038 79.5177 0.0000 0.0000 -5.8554 -3.9920 -41.3919 15.5934 0.0000 0.0000 8.0095 -10.8394 12.2577 44.8229 0.0000 0.0000 19.1926 20.2053 27.8310 -6.8828 0.0000 -0.0000
 -0.2140 2.8768 37.4510 32.9449 -5.0173 176.2336 3.1058 -2.4470 -1.0612 1.2010 -1.0526 -0.1500 2.5893 -2.5386 0.9466 0.9937 -1.1021 0.8373 -4.2605 -0.9391 5.1324 1.2675 7.0921 4.7256 34.5726 18.4330 -15.8320 65.6566 -46.9189 57.9518 -0.0001 0.0001 109.0463 -23.0843 16.0345 2.2982 0.0000 0.0000 -0.0000 0.0000 0.0000 -0.0000 37.1643 -13.8924 10.5734 46.5742 51.4223 -47.7912 -0.0001 -0.0001 -102.0462 -24.1898 -16.8373 -13.4588 -0.0000 0.0000 -0.0000 -0.0000 0.0000 0.0000 -20.9366 -3.1021 -9.4775 81.3500 0.0000 0.0000 -5.9392 -3.9632 -41.2861 15.3715 0.0000 0.0000 7.1792 -10.9063 11.8485 46.1147 0.0000 0.0000 19.9118 20.5884 28.6885 -4.8518 0.0000 -0.0000
 -0.2162 2.8600 37.5266 33.2552 -5.0325 176.2300 3.1080 -2.4479 -1.0729 1.2458 -1.0527 -0.1544 2.6914 -2.5436 0.8715 1.0088 -1.0801 0.8000 -4.5344 -1.0409 5.1522 1.5011 7.1557 4.7711 34.4907 18.2066 -15.7100 65.4152 -46.9381 57.6533 -0.0001 0.0001 108.9468 -23.0466 16.0704 2.2776 0.0000 0.0000 -0.0000 0.0000 0.0000 -0.0000 37.0076 -13.5589 10.4166 46.3958 51.4871 -47.5205 -0.0001 -0.0001 -101.8136 -24.2185 -16.8984 -13.5547 0.0000 0.0000 -0.0000 0.0000 -0.0000 -0.0000 -22.5366 -3.1684 -9.5390 83.0710 0.0000 0.0000 -5.9896 -3.9158 -41.1637 15.2020 0.0000 0.0000 6.2853 -10.9191 11.4103 47.4801 0.0000 0.0000 20.3157 20.9463 29.5701 -3.0411 0.0000 -0.0000
